<?xml version="1.0" encoding="utf-8"?>
<!-- Generator: Adobe Illustrator 23.0.1, SVG Export Plug-In . SVG Version: 6.00 Build 0)  -->
<svg version="1.1" id="Layer_1" xmlns="http://www.w3.org/2000/svg" xmlns:xlink="http://www.w3.org/1999/xlink" x="0px" y="0px"
	 viewBox="0 0 70 70" style="enable-background:new 0 0 70 70;" xml:space="preserve">
<style type="text/css">
	.st0{fill:#433BE2;}
</style>
<path class="st0" d="M56.6,8.9H44.9V4.5c0-1.1-0.9-2.1-2.1-2.1H27.2c-1.1,0-2.1,0.9-2.1,2.1V9H13.4c-1.1,0-2.1,0.9-2.1,2.1v8.4h47.4
	v-8.4C58.8,9.8,57.8,8.9,56.6,8.9z M40.7,8.9H29.3V6.6h11.4V8.9z"/>
<path class="st0" d="M14.3,23.9L17,65.6c0.1,1.1,0.9,2.1,2.1,2.1h31.8c1.1,0,2.1-0.9,2.1-2.1l2.7-41.6L14.3,23.9L14.3,23.9z
	 M28.6,59c0,1.1-0.9,2.1-2.1,2.1s-2.1-0.9-2.1-2.1V32.6c0-1.1,0.9-2.1,2.1-2.1s2.1,0.9,2.1,2.1V59z M37.1,59c0,1.1-0.9,2.1-2.1,2.1
	c-1.1,0-2.1-0.9-2.1-2.1V32.6c0-1.1,0.9-2.1,2.1-2.1c1.1,0,2.1,0.9,2.1,2.1V59z M45.7,59c0,1.1-0.9,2.1-2.1,2.1
	c-1.1,0-2.1-0.9-2.1-2.1V32.6c0-1.1,0.9-2.1,2.1-2.1c1.1,0,2.1,0.9,2.1,2.1V59L45.7,59z"/>
</svg>
