<?xml version="1.0" encoding="utf-8"?>
<!-- Generator: Adobe Illustrator 23.0.1, SVG Export Plug-In . SVG Version: 6.00 Build 0)  -->
<svg version="1.1" id="Layer_1" xmlns="http://www.w3.org/2000/svg" xmlns:xlink="http://www.w3.org/1999/xlink" x="0px" y="0px"
	 viewBox="0 0 70 70" style="enable-background:new 0 0 70 70;" xml:space="preserve">
<style type="text/css">
	.st0{display:none;}
	.st1{display:inline;}
	.st2{fill:#FFFFFF;}
	.st3{fill:#433BE2;}
</style>
<g class="st0">
	<g class="st1">
		<rect x="20.2" y="27" class="st2" width="29.6" height="5.8"/>
		<rect x="32.1" y="15.1" class="st2" width="5.8" height="29.6"/>
	</g>
</g>
<path class="st3" d="M31.5,7.2h7c1.9,0,3.5,1.6,3.5,3.5v16h7.6c1.8,0,2.8,2.2,1.5,3.5L36.5,45.5c-0.8,0.8-2.2,0.8-3,0L18.9,30.2
	c-1.3-1.3-0.3-3.5,1.5-3.5H28v-16C28,8.7,29.6,7.2,31.5,7.2z"/>
<path class="st3" d="M60,62.8H10c-4.6,0-8.3-3.7-8.3-8.3v-14c0-4.6,3.7-8.3,8.3-8.3h4.2c1.5,0,2.8,1.2,2.8,2.8s-1.2,2.8-2.8,2.8H10
	c-1.5,0-2.8,1.2-2.8,2.8v13.9c0,1.5,1.2,2.8,2.8,2.8h50c1.5,0,2.8-1.2,2.8-2.8v-14c0-1.5-1.2-2.8-2.8-2.8h-4.2
	c-1.5,0-2.8-1.2-2.8-2.8s1.2-2.8,2.8-2.8H60c4.6,0,8.3,3.7,8.3,8.3v13.9C68.4,59.1,64.6,62.8,60,62.8z"/>
</svg>
