<?xml version="1.0" encoding="utf-8"?>
<!-- Generator: Adobe Illustrator 23.0.1, SVG Export Plug-In . SVG Version: 6.00 Build 0)  -->
<svg version="1.1" id="Layer_1" xmlns="http://www.w3.org/2000/svg" xmlns:xlink="http://www.w3.org/1999/xlink" x="0px" y="0px"
	 viewBox="0 0 70 70" style="enable-background:new 0 0 70 70;" xml:space="preserve">
<style type="text/css">
	.st0{display:none;}
	.st1{display:inline;}
	.st2{fill:#FFFFFF;}
	.st3{fill:#474747;}
</style>
<g class="st0">
	<g class="st1">
		<rect x="20.2" y="27" class="st2" width="29.6" height="5.8"/>
		<rect x="32.1" y="15.1" class="st2" width="5.8" height="29.6"/>
	</g>
</g>
<path class="st3" d="M21.9,38.5v-7c0-1.9,1.6-3.5,3.5-3.5h23v-7.6c0-1.8,2.2-2.8,3.5-1.5l15.3,14.6c0.8,0.8,0.8,2.2,0,3L51.9,51.1
	c-1.3,1.3-3.5,0.3-3.5-1.5V42h-23C23.4,42,21.9,40.4,21.9,38.5z"/>
<path class="st3" d="M2.2,60V10c0-4.6,3.7-8.3,8.3-8.3h24c4.6,0,8.3,3.7,8.3,8.3v4.2c0,1.5-1.2,2.8-2.8,2.8s-2.8-1.2-2.8-2.8V10
	c0-1.5-1.2-2.8-2.8-2.8H10.5C9,7.2,7.7,8.4,7.7,10v50c0,1.5,1.2,2.8,2.8,2.8h24c1.5,0,2.8-1.2,2.8-2.8v-4.2c0-1.5,1.2-2.8,2.8-2.8
	s2.8,1.2,2.8,2.8V60c0,4.6-3.7,8.3-8.3,8.3H10.7C5.9,68.4,2.2,64.6,2.2,60z"/>
</svg>
