<?xml version="1.0" encoding="utf-8"?>
<!-- Generator: Adobe Illustrator 23.0.1, SVG Export Plug-In . SVG Version: 6.00 Build 0)  -->
<svg version="1.1" id="Layer_1" xmlns="http://www.w3.org/2000/svg" xmlns:xlink="http://www.w3.org/1999/xlink" x="0px" y="0px"
	 viewBox="0 0 70 70" style="enable-background:new 0 0 70 70;" xml:space="preserve">
<style type="text/css">
	.st0{fill:#FFFFFF;}
	.st1{display:none;}
	.st2{display:inline;}
</style>
<path class="st0" d="M41.7,5.5c-12.8,0-23,10.4-23,23c0,4.2,1.2,8.2,3.2,11.6L7.1,54.8c-2.2,2.4-2.2,6,0,8.2c2.4,2.2,6,2.2,8.2,0
	l14.8-14.8c3.4,2,7.4,3.2,11.6,3.2c12.8,0,23-10.2,23-23C64.5,15.7,54.3,5.5,41.7,5.5z M41.7,42.9c-7.9,0-14.3-6.5-14.3-14.3
	s6.5-14.3,14.3-14.3S56,20.8,56,28.6S49.5,42.9,41.7,42.9z"/>
<g class="st1">
	<g class="st2">
		<rect x="20.2" y="27" class="st0" width="29.6" height="5.8"/>
		<rect x="32.1" y="15.1" class="st0" width="5.8" height="29.6"/>
	</g>
</g>
</svg>
