<?xml version="1.0" encoding="utf-8"?>
<!-- Generator: Adobe Illustrator 23.0.1, SVG Export Plug-In . SVG Version: 6.00 Build 0)  -->
<svg version="1.1" id="Layer_1" xmlns="http://www.w3.org/2000/svg" xmlns:xlink="http://www.w3.org/1999/xlink" x="0px" y="0px"
	 viewBox="0 0 70 70" style="enable-background:new 0 0 70 70;" xml:space="preserve">
<style type="text/css">
	.st0{display:none;}
	.st1{display:inline;}
	.st2{fill:#FFFFFF;}
	.st3{fill:#433BE2;}
</style>
<g class="st0">
	<g class="st1">
		<rect x="20.2" y="27" class="st2" width="29.6" height="5.8"/>
		<rect x="32.1" y="15.1" class="st2" width="5.8" height="29.6"/>
	</g>
</g>
<path class="st3" d="M20.6,6.5v13.3c0,1,0.8,1.8,1.8,1.8H40c1,0,1.8-0.8,1.8-1.8V6.5H20.6z"/>
<path class="st3" d="M65.4,19.6c0-0.3-0.2-0.7-0.4-1c-0.1-0.1,0.8,0.8-13.5-13.5c-0.3-0.3-0.8-0.5-1.3-0.5c-0.1,0-3.3,0-3.9,0v15.2
	c0,2.9-2.4,5.3-5.3,5.3c-1.7,0-21.8,0-22,0c-2.9,0-5.3-2.4-5.3-5.3V4.6c-3.5,0-3.4,0-3.7,0C7,4.6,4.6,7,4.6,10v50
	c0,2.9,2.4,5.3,5.3,5.3h50c2.9,0,5.3-2.4,5.3-5.3C65.4,16.8,65.4,19.8,65.4,19.6z M56.4,53.4c0,2.3-2.2,4.2-5,4.2H18.6
	c-2.8,0-5-1.9-5-4.2V35.1c0-2.3,2.2-4.2,5-4.2h32.8c2.8,0,5,1.9,5,4.2V53.4z"/>
<path class="st3" d="M49.2,41.4H20.8c-0.7,0-1.3-0.6-1.3-1.3v-1c0-0.7,0.6-1.3,1.3-1.3h28.3c0.7,0,1.3,0.6,1.3,1.3v1
	C50.5,40.8,49.9,41.4,49.2,41.4z"/>
<path class="st3" d="M49.2,50.7H20.8c-0.7,0-1.3-0.6-1.3-1.3v-1c0-0.7,0.6-1.3,1.3-1.3h28.3c0.7,0,1.3,0.6,1.3,1.3v1
	C50.5,50.2,49.9,50.7,49.2,50.7z"/>
</svg>
