<?xml version="1.0" encoding="utf-8"?>
<!-- Generator: Adobe Illustrator 23.0.1, SVG Export Plug-In . SVG Version: 6.00 Build 0)  -->
<svg version="1.1" id="Layer_1" xmlns="http://www.w3.org/2000/svg" xmlns:xlink="http://www.w3.org/1999/xlink" x="0px" y="0px"
	 viewBox="0 0 70 70" style="enable-background:new 0 0 70 70;" xml:space="preserve">
<style type="text/css">
	.st0{fill:#7C7C7C;}
</style>
<path class="st0" d="M67.1,34.8C66.6,34.1,52.6,18.9,35,18.9c-17.6,0-31.6,15.2-32.1,15.9l-1.5,1.7l1.5,1.7C3.4,38.7,17.4,54,35,54
	c17.6,0,31.6-15.2,32.1-15.9l1.5-1.7L67.1,34.8z M29.8,24.4c-4.7,2-7.9,6.6-7.9,12c0,5.4,3.3,10,7.9,12c-9.9-1.9-18.2-8.8-21.6-12
	C11.7,33.2,19.9,26.3,29.8,24.4z M40.2,48.5c4.7-2,7.9-6.6,7.9-12c0-5.4-3.3-10-7.9-12c9.9,1.9,18.2,8.8,21.6,12
	C58.3,39.6,50.1,46.5,40.2,48.5z"/>
</svg>
