<?xml version="1.0" encoding="utf-8"?>
<!-- Generator: Adobe Illustrator 23.0.1, SVG Export Plug-In . SVG Version: 6.00 Build 0)  -->
<svg version="1.1" id="Layer_1" xmlns="http://www.w3.org/2000/svg" xmlns:xlink="http://www.w3.org/1999/xlink" x="0px" y="0px"
	 viewBox="0 0 70 70" style="enable-background:new 0 0 70 70;" xml:space="preserve">
<style type="text/css">
	.st0{display:none;}
	.st1{display:inline;}
	.st2{fill:#FFFFFF;}
	.st3{fill:#433BE2;}
</style>
<g class="st0">
	<g class="st1">
		<rect x="20.2" y="27" class="st2" width="29.6" height="5.8"/>
		<rect x="32.1" y="15.1" class="st2" width="5.8" height="29.6"/>
	</g>
</g>
<path class="st3" d="M38.5,46.1h-7c-1.9,0-3.5-1.6-3.5-3.5v-16h-7.6c-1.8,0-2.8-2.2-1.5-3.5L33.5,7.8c0.8-0.8,2.2-0.8,3,0l14.6,15.3
	c1.3,1.3,0.3,3.5-1.5,3.5H42v16C42,44.6,40.4,46.1,38.5,46.1z"/>
<path class="st3" d="M60,62.8H10c-4.6,0-8.3-3.7-8.3-8.3V40.5c0-4.6,3.7-8.3,8.3-8.3h4.2c1.5,0,2.8,1.2,2.8,2.8s-1.2,2.8-2.8,2.8H10
	c-1.5,0-2.8,1.2-2.8,2.8v13.9c0,1.5,1.2,2.8,2.8,2.8H60c1.5,0,2.8-1.2,2.8-2.8V40.5c0-1.5-1.2-2.8-2.8-2.8h-4.2
	c-1.5,0-2.8-1.2-2.8-2.8s1.2-2.8,2.8-2.8H60c4.6,0,8.3,3.7,8.3,8.3v13.9C68.4,59.1,64.6,62.8,60,62.8z"/>
</svg>
