<?xml version="1.0" encoding="utf-8"?>
<!-- Generator: Adobe Illustrator 23.0.1, SVG Export Plug-In . SVG Version: 6.00 Build 0)  -->
<svg version="1.1" xmlns="http://www.w3.org/2000/svg" xmlns:xlink="http://www.w3.org/1999/xlink" x="0px" y="0px"
	 viewBox="0 0 70 70" style="enable-background:new 0 0 70 70;" xml:space="preserve">
<style type="text/css">
	.st0{fill:#FFFFFF;}
	.st1{display:none;}
	.st2{display:inline;}
</style>
<g id="Layer_1">
	<g>
		<path class="st0" d="M14.8,55.1H9.1l11.5,11.5v-5.7C20.6,57.7,18,55.1,14.8,55.1z"/>
	</g>
	<path class="st0" d="M57.8,0.6H12c-3.2,0-5.7,2.6-5.7,5.7v43.9c0,0,6.5,0,8.6,0c5.7,0,10.6,4.9,10.6,10.6c0,2.2,0,8.6,0,8.6H58
		c3.2,0,5.7-2.6,5.7-5.7V6.3C63.7,3.1,61,0.6,57.8,0.6z M49.8,33.1H37.2v12.6h-4.4V33.1H20.2v-4.4h12.6V16.1h4.4v12.6h12.6V33.1z"/>
</g>
<g id="Layer_2" class="st1">
	<g class="st2">
		<rect x="20.2" y="27" class="st0" width="29.6" height="5.8"/>
		<rect x="32.1" y="15.1" class="st0" width="5.8" height="29.6"/>
	</g>
</g>
</svg>
