<?xml version="1.0" encoding="utf-8"?>
<!-- Generator: Adobe Illustrator 23.0.1, SVG Export Plug-In . SVG Version: 6.00 Build 0)  -->
<svg version="1.1" id="Layer_1" xmlns="http://www.w3.org/2000/svg" xmlns:xlink="http://www.w3.org/1999/xlink" x="0px" y="0px"
	 viewBox="0 0 70 70" style="enable-background:new 0 0 70 70;" xml:space="preserve">
<style type="text/css">
	.st0{display:none;}
	.st1{display:inline;}
	.st2{fill:#FFFFFF;}
</style>
<g class="st0">
	<g class="st1">
		<rect x="20.2" y="27" class="st2" width="29.6" height="5.8"/>
		<rect x="32.1" y="15.1" class="st2" width="5.8" height="29.6"/>
	</g>
</g>
<path class="st2" d="M39.2,48.5h-8.4c-2.3,0-4.2-1.9-4.2-4.2V24.8h-9.3c-2.2,0-3.4-2.7-1.8-4.3L33.2,2c1-1,2.7-1,3.7,0l17.7,18.6
	c1.5,1.6,0.4,4.3-1.8,4.3h-9.3v19.4C43.4,46.6,41.6,48.5,39.2,48.5z"/>
<path class="st2" d="M58.7,68.8H11.3c-5.6,0-10.1-4.5-10.1-10.1V43.7c0-5.6,4.5-10.1,10.1-10.1h2.1c1.9,0,3.4,1.5,3.4,3.4
	s-1.5,3.4-3.4,3.4h-2.1c-1.9,0-3.4,1.5-3.4,3.4v14.9c0,1.9,1.5,3.4,3.4,3.4h47.4c1.9,0,3.4-1.5,3.4-3.4V43.7c0-1.9-1.5-3.4-3.4-3.4
	h-2.1c-1.9,0-3.4-1.5-3.4-3.4s1.5-3.4,3.4-3.4h2.1c5.6,0,10.1,4.5,10.1,10.1v14.9C68.9,64.2,64.3,68.8,58.7,68.8z"/>
</svg>
