<?xml version="1.0" encoding="utf-8"?>
<!-- Generator: Adobe Illustrator 23.0.1, SVG Export Plug-In . SVG Version: 6.00 Build 0)  -->
<!DOCTYPE svg PUBLIC "-//W3C//DTD SVG 1.1//EN" "http://www.w3.org/Graphics/SVG/1.1/DTD/svg11.dtd" [
	<!ENTITY st0 "fill:#FFFFFF;">
	<!ENTITY st1 "fill:#7D87FB;">
	<!ENTITY st2 "fill:#433BE2;">
]>
<svg version="1.1" xmlns="http://www.w3.org/2000/svg" xmlns:xlink="http://www.w3.org/1999/xlink" x="0px" y="0px"
	 viewBox="0 0 70 70" style="enable-background:new 0 0 70 70;" xml:space="preserve">
<g id="Capa_1">
	<circle style="&st0;" cx="-44.7" cy="-51.8" r="7.5"/>
	<circle style="&st0;" cx="-44.7" cy="-26.8" r="7.5"/>
	<circle style="&st0;" cx="-44.7" cy="-1.8" r="7.5"/>
	<g>
		<g>
			<path style="&st1;" d="M-88.4,44.7h-14v-2.3c0-4.1-3.3-7.4-7.4-7.4h-13.3c-4.1,0-7.4,3.3-7.4,7.4v2.3h-14c-1,0-1.9,0.8-1.9,1.9
				s0.8,1.9,1.9,1.9h3.4v44c0,5.5,4.5,10,10,10h29.5c5.5,0,10-4.5,10-10v-44h3.4c1,0,1.9-0.8,1.9-1.9S-87.3,44.7-88.4,44.7z
				 M-126.8,42.4c0-2,1.7-3.7,3.7-3.7h13.3c2,0,3.7,1.7,3.7,3.7v2.3h-20.7V42.4z M-95.5,92.4c0,3.5-2.8,6.3-6.3,6.3h-29.5
				c-3.5,0-6.3-2.8-6.3-6.3v-44h42L-95.5,92.4L-95.5,92.4z"/>
			<path style="&st1;" d="M-116.5,92c1,0,1.9-0.8,1.9-1.9V57c0-1-0.8-1.9-1.9-1.9s-1.9,0.8-1.9,1.9v33.1
				C-118.4,91.2-117.5,92-116.5,92z"/>
			<path style="&st1;" d="M-128.7,89.9c1,0,1.9-0.8,1.9-1.9v-29c0-1-0.8-1.9-1.9-1.9c-1,0-1.9,0.8-1.9,1.9v29
				C-130.6,89.1-129.7,89.9-128.7,89.9z"/>
			<path style="&st1;" d="M-104.3,89.9c1,0,1.9-0.8,1.9-1.9v-29c0-1-0.8-1.9-1.9-1.9s-1.9,0.8-1.9,1.9v29
				C-106.1,89.1-105.3,89.9-104.3,89.9z"/>
		</g>
	</g>
	<path d="M-114.6-31.2l4.3,56.4c0,0.6,0.5,1.1,1.1,1.1h30.2c0.6,0,1.1-0.5,1.1-1.1l4.3-56.4H-114.6z M-103.2,21.6L-103.2,21.6
		c-0.7,0-1.2-0.5-1.2-1.1l-2.3-45.9c0-0.6,0.5-1.2,1.1-1.2c0.6,0,1.2,0.5,1.2,1.1l2.3,45.9c0,0.3-0.1,0.6-0.3,0.8
		C-102.6,21.4-102.9,21.6-103.2,21.6z M-92.9,20.5c0,0.6-0.5,1.1-1.1,1.1s-1.1-0.5-1.1-1.1v-45.9c0-0.6,0.5-1.1,1.1-1.1
		s1.1,0.5,1.1,1.1V20.5z M-83.7,20.5c0,0.6-0.5,1.1-1.1,1.1h-0.1c-0.3,0-0.6-0.2-0.8-0.4c-0.2-0.2-0.3-0.5-0.3-0.8l2.3-45.9
		c0-0.6,0.6-1.1,1.2-1.1c0.6,0,1.1,0.6,1.1,1.2L-83.7,20.5z"/>
</g>
<g id="Layer_2">
	<path style="&st0;" d="M-49,77.5h0.1c0.6,0,1.2-0.2,1.6-0.4c0.4-0.2,0.6-0.5,0.6-0.8L-51,44.3c-0.1-0.6-1.2-1.1-2.4-1.1
		c-1.3,0-2.3,0.6-2.2,1.2l4.3,31.9C-51.3,77-50.3,77.5-49,77.5z"/>
	<path style="&st0;" d="M-29.4,43.2c-1.3,0-2.4,0.5-2.4,1.1l-4.3,31.9c0,0.3,0.2,0.6,0.6,0.8c0.4,0.2,1,0.4,1.6,0.4h0.1
		c1.2,0,2.3-0.5,2.3-1.1l4.3-31.9C-27.1,43.8-28.1,43.3-29.4,43.2z"/>
	<path style="&st2;" d="M76.8-86.6l-14.5,0.9c0-1.1-0.9-4.4-3-5c-2.4-0.7-13.6-0.6-16,0c-2.1,0.5-3,3.9-3,5l-14.5-0.9
		c-0.7,0-3.3,2.3-3.3,5c0,2.8,0.6,4.1,0.6,4.1h56.5c0,0,0.6-1.3,0.6-4.1C80.1-84.4,77.5-86.6,76.8-86.6z"/>
	<path style="&st2;" d="M27.1-72.2l7.4,47.7c0.1,0.6,0.7,1,1.4,1h30.8c0.7,0,1.3-0.4,1.4-1l7.4-47.7H27.1z M42.2-37.1
		c-0.5,0-1,0.4-1.1-1.6l-2.3-14.9c-0.1-1.7,0.5-1.9,0.7-1.9c0.8-0.1,6,0,6,0l1.2,18.5H42.2z M63.8-53.6l-2.3,14.9
		c-0.1,2-0.6,1.6-1.1,1.6h-4.5l1.2-18.5c0,0,5.2-0.1,6,0C63.3-55.4,63.9-55.3,63.8-53.6z"/>
	<g>
		<path style="&st2;" d="M-216.4,25.3c-2,4.2-3.6,18.6-3.6,18.6c-0.1,0.3,0.1,0.7,0.4,0.9c0.3,0.2,0.7,0.3,1,0.1c0,0,13.4-5,17-7.9
			L-176.8,6l-14.7-11.8L-216.4,25.3z"/>
		<path style="&st2;" d="M-181.7-18.1l-4.6,5.8l14.7,11.8l5.4-6.7c1.4-1.8,1-4.5-1-6.1l-6.6-5.2C-176.3-20.6-179.9-20.4-181.7-18.1z
			"/>
	</g>
	<g id="surface1">
		<path style="&st0;" d="M-18.3,127.9v-12.8c0-0.4-0.2-0.7-0.4-1l-14.3-15c-0.3-0.3-0.6-0.4-1-0.4h-22.7c-4.2,0-7.5,3.4-7.5,7.6
			v42.9c0,4.2,3.3,7.6,7.5,7.6h17.9c3.4,5.6,9.5,9.4,16.6,9.4c10.7,0,19.4-8.7,19.4-19.3C-2.9,137.5-9.6,129.7-18.3,127.9z
			 M-32.7,103.7l9.6,10.1h-6.2c-1.9,0-3.4-1.5-3.4-3.4V103.7z M-56.8,154c-2.6,0-4.7-2.1-4.7-4.7v-42.9c0-2.6,2.1-4.8,4.7-4.8h21.3
			v8.8c0,3.4,2.8,6.2,6.2,6.2h8.2v11c-0.4,0-0.8-0.1-1.1-0.1c-4.9,0-9.4,1.9-12.8,4.8h-17.9c-0.8,0-1.4,0.6-1.4,1.4
			c0,0.8,0.6,1.4,1.4,1.4h15.2c-1,1.4-1.8,2.8-2.5,4.4h-12.8c-0.8,0-1.4,0.6-1.4,1.4c0,0.8,0.6,1.4,1.4,1.4h11.9
			c-0.4,1.4-0.5,3-0.5,4.5c0,2.5,0.5,5,1.4,7.1L-56.8,154L-56.8,154z M-22.3,163.4c-9.1,0-16.5-7.4-16.5-16.5
			c0-9.1,7.4-16.5,16.5-16.5c9.1,0,16.5,7.4,16.5,16.5C-5.8,156-13.2,163.4-22.3,163.4z"/>
		<path style="&st0;" d="M-52.9,128.1h14.2c0.8,0,1.4-0.6,1.4-1.4c0-0.8-0.6-1.4-1.4-1.4h-14.2c-0.8,0-1.4,0.6-1.4,1.4
			C-54.3,127.5-53.7,128.1-52.9,128.1z"/>
		<path style="&st0;" d="M-21.3,136.5c-0.3-0.3-0.6-0.4-1-0.4c-0.4,0-0.8,0.2-1,0.4l-8.2,8.8c-0.5,0.6-0.5,1.5,0.1,2
			c0.6,0.5,1.5,0.5,2-0.1l5.8-6.2v15.4c0,0.8,0.6,1.4,1.4,1.4c0.8,0,1.4-0.6,1.4-1.4V141l5.8,6.2c0.3,0.3,0.6,0.4,1,0.4
			c0.3,0,0.7-0.1,1-0.4c0.6-0.5,0.6-1.4,0.1-2L-21.3,136.5z"/>
	</g>
	<g id="surface1_1_">
		<path d="M201.4,163.6v-18c0-0.5-0.2-1-0.6-1.4l-20.2-21.2c-0.4-0.4-0.9-0.6-1.4-0.6h-32c-5.9,0-10.6,4.8-10.6,10.7v60.5
			c0,5.9,4.7,10.6,10.6,10.6h25.2c4.8,7.9,13.5,13.2,23.3,13.2c15,0,27.3-12.2,27.3-27.2C223.2,177.2,213.7,166.2,201.4,163.6z
			 M181.2,129.4l13.5,14.2H186c-2.6,0-4.8-2.2-4.8-4.8V129.4z M147.3,200.3c-3.7,0-6.7-3-6.7-6.7v-60.5c0-3.7,3-6.8,6.7-6.8h30v12.5
			c0,4.8,3.9,8.7,8.7,8.7h11.5v15.5c-0.6,0-1.1-0.1-1.6-0.1c-6.9,0-13.3,2.7-18.1,6.8h-25.2c-1.1,0-2,0.9-2,2c0,1.1,0.9,2,2,2h21.5
			c-1.4,2-2.6,4-3.5,6.1h-18c-1.1,0-2,0.9-2,2c0,1.1,0.9,2,2,2h16.7c-0.5,2-0.8,4.2-0.8,6.4c0,3.6,0.7,7.1,1.9,10.1L147.3,200.3
			L147.3,200.3z M195.9,213.6c-12.8,0-23.3-10.4-23.3-23.3S183,167,195.9,167c12.9,0,23.3,10.4,23.3,23.3S208.7,213.6,195.9,213.6z"
			/>
		<path d="M152.7,163.9h20.1c1.1,0,2-0.9,2-2c0-1.1-0.9-2-2-2h-20.1c-1.1,0-2,0.9-2,2C150.7,163,151.6,163.9,152.7,163.9z"/>
		<path d="M204.4,197.1c1.8-2.4,2.9-5.3,2.9-8.5c0-7.8-6.3-14.1-14.1-14.1s-14.1,6.3-14.1,14.1c0,7.8,6.3,14.1,14.1,14.1
			c3.2,0,6.1-1.1,8.5-2.8l5.8,5.8c0.4,0.4,0.9,0.6,1.4,0.6c0.5,0,1-0.2,1.4-0.6c0.8-0.8,0.8-2,0-2.8L204.4,197.1z M182.9,188.6
			c0-5.6,4.6-10.1,10.2-10.1c5.6,0,10.2,4.6,10.2,10.1c0,2.8-1.1,5.3-2.9,7.1c0,0-0.1,0-0.1,0.1c0,0,0,0-0.1,0.1
			c-1.8,1.8-4.4,2.9-7.1,2.9C187.5,198.7,182.9,194.2,182.9,188.6z"/>
	</g>
	<g id="surface1_2_">
		<path style="&st0;" d="M50.3,30.5V17.7c0-0.4-0.2-0.7-0.4-1l-14.3-15c-0.3-0.3-0.6-0.4-1-0.4H11.8c-4.2,0-7.5,3.4-7.5,7.6v42.9
			c0,4.2,3.3,7.6,7.5,7.6h17.9c3.4,5.6,9.5,9.4,16.6,9.4c10.7,0,19.4-8.7,19.4-19.3C65.7,40.1,59,32.3,50.3,30.5z M35.9,6.2
			l9.6,10.1h-6.2c-1.9,0-3.4-1.5-3.4-3.4V6.2z M11.8,56.5c-2.6,0-4.7-2.1-4.7-4.7V8.9c0-2.6,2.1-4.8,4.7-4.8h21.3v8.8
			c0,3.4,2.8,6.2,6.2,6.2h8.2v11c-0.4,0-0.8-0.1-1.1-0.1c-4.9,0-9.4,1.9-12.8,4.8H15.7c-0.8,0-1.4,0.6-1.4,1.4
			c0,0.8,0.6,1.4,1.4,1.4h15.2c-1,1.4-1.8,2.8-2.5,4.4H15.7c-0.8,0-1.4,0.6-1.4,1.4c0,0.8,0.6,1.4,1.4,1.4h11.9
			c-0.4,1.4-0.5,3-0.5,4.5c0,2.5,0.5,5,1.4,7.1L11.8,56.5L11.8,56.5z M46.3,65.9c-9.1,0-16.5-7.4-16.5-16.5s7.4-16.5,16.5-16.5
			c9.1,0,16.5,7.4,16.5,16.5S55.5,65.9,46.3,65.9z"/>
		<path style="&st0;" d="M15.7,30.7h14.2c0.8,0,1.4-0.6,1.4-1.4c0-0.8-0.6-1.4-1.4-1.4H15.7c-0.8,0-1.4,0.6-1.4,1.4
			C14.3,30,14.9,30.7,15.7,30.7z"/>
		<path style="&st0;" d="M52.4,54.2c1.3-1.7,2-3.8,2-6c0-5.5-4.5-10-10-10s-10,4.5-10,10s4.5,10,10,10c2.3,0,4.3-0.7,6-2l4.1,4.1
			c0.3,0.3,0.6,0.4,1,0.4c0.4,0,0.7-0.1,1-0.4c0.5-0.5,0.5-1.4,0-2L52.4,54.2z M37.1,48.2c0-4,3.2-7.2,7.2-7.2s7.2,3.2,7.2,7.2
			c0,2-0.8,3.7-2.1,5c0,0,0,0-0.1,0.1c0,0,0,0,0,0c-1.3,1.3-3.1,2.1-5,2.1C40.4,55.4,37.1,52.2,37.1,48.2z"/>
	</g>
</g>
</svg>
